<?xml version="1.0" encoding="utf-8"?>
<!-- Generator: Adobe Illustrator 21.0.0, SVG Export Plug-In . SVG Version: 6.00 Build 0)  -->
<svg version="1.1" id="图层_1" xmlns="http://www.w3.org/2000/svg" xmlns:xlink="http://www.w3.org/1999/xlink" x="0px" y="0px"
	 viewBox="0 0 26 26" style="enable-background:new 0 0 26 26;" xml:space="preserve">
<style type="text/css">
	.st0{fill:#62FDFC;}
</style>
<g>
	<g>
		<path class="st0" d="M25.5,13.1L14.4,2l-0.7-0.7c-0.4-0.4-0.9-0.4-1.3,0L0.5,13.1C0.2,13.5,0,13.9,0,14.4c0,1,0.9,1.8,1.9,1.8h1.2
			v9.3h19.8v-9.3h1.2c0.5,0,1-0.2,1.3-0.5c0.3-0.3,0.5-0.8,0.5-1.3C26,13.9,25.8,13.5,25.5,13.1L25.5,13.1z M14.6,23.5h-3.2v-5.8
			h3.2V23.5z M20.9,14.2v9.3h-4.4V17c0-0.6-0.5-1.1-1.1-1.1h-4.6c-0.6,0-1.1,0.5-1.1,1.1v6.5H5.1v-9.3H2.4L13,3.6l0.7,0.7l9.9,9.9
			H20.9z M20.9,14.2"/>
	</g>
</g>
</svg>
