<?xml version="1.0" encoding="utf-8"?>
<!-- Generator: Adobe Illustrator 21.0.0, SVG Export Plug-In . SVG Version: 6.00 Build 0)  -->
<svg version="1.1" id="图层_1" xmlns="http://www.w3.org/2000/svg" xmlns:xlink="http://www.w3.org/1999/xlink" x="0px" y="0px"
	 viewBox="0 0 26 26" style="enable-background:new 0 0 26 26;" xml:space="preserve">
<style type="text/css">
	.st0{fill:#0EFCFB;}
</style>
<g>
	<g>
		<path class="st0" d="M23.6,0.3h-21C1.2,0.3,0.1,1.4,0,2.7v15.5c-0.1,1.3,1,2.5,2.4,2.5l0.1,0h4.3v3.5c0,0.7,0.6,1.3,1.3,1.4h0.1
			c0.4,0,0.7-0.2,1-0.4l4.6-4.5h9.6c1.4,0,2.5-1.1,2.5-2.4V2.8c0.1-1.3-0.9-2.3-2.2-2.4C23.7,0.3,23.6,0.3,23.6,0.3L23.6,0.3z
			 M16.1,14.8H5.3c-0.7,0-1.3-0.6-1.3-1.3c0-0.7,0.6-1.3,1.3-1.3h10.8c0.7,0,1.3,0.6,1.3,1.3C17.5,14.2,16.9,14.8,16.1,14.8
			L16.1,14.8z M20.8,8.9H5.3C4.6,8.9,4.1,8.4,4,7.7c0,0,0,0,0-0.1c0-0.7,0.6-1.3,1.3-1.3h15.4c0.7,0,1.3,0.6,1.3,1.3
			C22.1,8.3,21.5,8.9,20.8,8.9C20.8,8.9,20.8,8.9,20.8,8.9L20.8,8.9z M20.8,8.9"/>
	</g>
</g>
</svg>
